<svg xmlns="http://www.w3.org/2000/svg" x="0px" y="0px" width="100" height="100" viewBox="0 0 40 40">
<linearGradient id="UDpQ2dT2_3KPXydI61x4La_bvKOG4MUOYvk_gr1" x1="6" x2="6" y1="2.059" y2="31.266" gradientUnits="userSpaceOnUse"><stop offset="0"></stop><stop offset=".33" stop-color="#b2b2b2"></stop><stop offset=".636" stop-color="#b2b2b2"></stop><stop offset="1"></stop></linearGradient><polygon fill="url(#UDpQ2dT2_3KPXydI61x4La_bvKOG4MUOYvk_gr1)" points="4,9 4,26.378 8,27 8,5.27"></polygon><linearGradient id="UDpQ2dT2_3KPXydI61x4Lb_bvKOG4MUOYvk_gr2" x1="35" x2="35" y1="1.85" y2="39.932" gradientUnits="userSpaceOnUse"><stop offset="0"></stop><stop offset=".33" stop-color="#b2b2b2"></stop><stop offset=".636" stop-color="#b2b2b2"></stop><stop offset="1"></stop></linearGradient><polygon fill="url(#UDpQ2dT2_3KPXydI61x4Lb_bvKOG4MUOYvk_gr2)" points="37,9 37,30 33,33 33,6"></polygon><polygon fill="#b2b2b2" points="37.091,30 4.114,30 8,34 33,34"></polygon><polygon fill="#b2b2b2" points="33,5 37,9 4,9 8,5"></polygon><linearGradient id="UDpQ2dT2_3KPXydI61x4Lc_bvKOG4MUOYvk_gr3" x1="11.746" x2="19.649" y1="18.701" y2="5.591" gradientUnits="userSpaceOnUse"><stop offset="0" stop-color="#b2b2b2"></stop><stop offset=".122" stop-color="#a4a4a4"></stop><stop offset=".352" stop-color="gray"></stop><stop offset=".665" stop-color="#464646"></stop><stop offset="1"></stop></linearGradient><polygon fill="url(#UDpQ2dT2_3KPXydI61x4Lc_bvKOG4MUOYvk_gr3)" points="7.983,27.993 18,13.5 13.452,13 4,26.378"></polygon><path fill="#b2b2b2" d="M25,13c-3.314,0-6,2.686-6,6s2.686,6,6,6s6-2.686,6-6S28.314,13,25,13z M25,21c-1.105,0-2-0.895-2-2	c0-1.105,0.895-2,2-2s2,0.895,2,2C27,20.105,26.105,21,25,21z"></path><polygon fill="#b2b2b2" points="29,28 24,28 13.428,13 18.271,13"></polygon><radialGradient id="UDpQ2dT2_3KPXydI61x4Ld_bvKOG4MUOYvk_gr4" cx="22.17" cy="21.122" r="7.096" gradientTransform="matrix(.7144 .6997 -.5476 .5591 17.898 -6.2)" gradientUnits="userSpaceOnUse"><stop offset="0"></stop><stop offset=".082" stop-color="#111"></stop><stop offset=".531" stop-color="#676767"></stop><stop offset=".847" stop-color="#9d9d9d"></stop><stop offset="1" stop-color="#b2b2b2"></stop></radialGradient><path fill="url(#UDpQ2dT2_3KPXydI61x4Ld_bvKOG4MUOYvk_gr4)" d="M23.333,20.103	C23.124,19.787,23,19.408,23,19c0-1.105,0.895-2,2-2c0.637,0,1.198,0.303,1.564,0.768l3.244-2.345C28.715,13.955,26.971,13,25,13	c-3.314,0-6,2.686-6,6c0,1.283,0.406,2.47,1.093,3.446l-0.005,0.004L24,28h5l-5.654-7.906L23.333,20.103z"></path><path fill="#b2b2b2" d="M29.809,15.422l-3.244,2.345C26.833,18.108,27,18.533,27,19c0,1.105-0.895,2-2,2	c-0.674,0-1.263-0.338-1.625-0.848L18.271,13h-4.843l6.719,9.548l0.017-0.013C21.256,24.026,23.011,25,25,25c3.314,0,6-2.686,6-6	C31,17.657,30.554,16.422,29.809,15.422z"></path>
</svg>
